<svg id="Calque_1" data-name="Calque 1" xmlns="http://www.w3.org/2000/svg" viewBox="0 0 282.9 282.08"><defs><style>.cls-1{fill:#fff;stroke:#f49819;stroke-miterlimit:10;stroke-width:10px;}.cls-2{font-size:46px;font-family:Philosopher;}.cls-2,.cls-5{fill:#014d5d;}.cls-3{letter-spacing:-0.01em;}.cls-4{fill:#f49819;}</style></defs><title>Plan de travail 1</title><rect class="cls-1" x="15.41" y="13.53" width="255.9" height="255.9"/><text class="cls-2" transform="translate(119.49 179.73)">La<tspan x="-73.76" y="55.2">cantiniè</tspan><tspan class="cls-3" x="81.26" y="55.2">r</tspan><tspan x="99.1" y="55.2">e</tspan></text><polygon class="cls-4" points="180.9 35.31 144.68 71.53 144.38 75.39 147.96 74.81 184.18 38.59 180.9 35.31"/><polygon class="cls-5" points="105.83 35.31 142.04 71.53 142.34 75.39 138.77 74.81 102.55 38.59 105.83 35.31"/><polygon class="cls-5" points="105.83 117.5 142.04 81.28 142.34 77.43 138.77 78.01 102.55 114.23 105.83 117.5"/><polygon class="cls-4" points="180.9 117.5 144.68 81.28 144.38 77.43 147.96 78.01 184.18 114.23 180.9 117.5"/></svg>